<?xml version="1.0" encoding="utf-8"?>
<svg version="1.1" xmlns="http://www.w3.org/2000/svg"  viewBox="0 0 270.73 315.8" style="enable-background:new 0 0 270.73 315.8;" xml:space="preserve">
<style type="text/css">
	.st0{fill:#E8B044;}
	.st1{fill:#A0D2FF;}
	.st2{fill:#493500;}
	.st3{fill:#494949;}
	.st4{fill:none;stroke:#000000;stroke-width:10;stroke-miterlimit:10;}
	.st5{fill:#FFFFFF;}
	.st6{fill:#493500;stroke:#493500;stroke-width:6;stroke-miterlimit:10;}
	.st7{stroke:#000000;stroke-width:5;stroke-miterlimit:10;}
	.st8{fill:#1D69FF;}
	.st9{fill:#FFFFFF;stroke:#000000;stroke-width:10;stroke-miterlimit:10;}
</style>
<g>
	<path class="st5" d="M135.36,310.8c-71.39,0-129.56-57.67-130.36-128.88l0-1.49L5,50C5,25.19,25.18,5.01,49.99,5
		C74.75,5.01,94.9,25.09,94.9,49.76v6.53l6.31-1.71c11.08-3,22.57-4.52,34.15-4.52s23.08,1.52,34.15,4.52l6.31,1.71v-6.53
		c0-24.67,20.15-44.76,44.92-44.76c24.8,0.01,44.98,20.19,44.98,45v130.43C265.73,252.32,207.25,310.8,135.36,310.8z"/>
	<path d="M49.98,10c10.7,0,20.74,4.13,28.26,11.62C85.76,29.1,89.9,39.1,89.9,49.76v13.07l12.61-3.42
		c10.65-2.88,21.7-4.34,32.85-4.34c11.15,0,22.2,1.46,32.85,4.34l12.61,3.42V49.76c0-10.66,4.14-20.66,11.66-28.14
		C200.01,14.13,210.04,10,220.74,10c22.05,0.01,39.98,17.95,39.98,40v130.43c0,33.49-13.04,64.97-36.72,88.65
		c-23.68,23.68-55.16,36.72-88.65,36.72s-64.97-13.04-88.65-36.72c-23.26-23.26-36.26-54.06-36.71-86.88l0-1.76L10,50
		C10,27.95,27.94,10.01,49.98,10 M220.76,0h-0.03c0.01,0,0.01,0,0.02,0S220.76,0,220.76,0L220.76,0z M50,0h-0.03
		c0.01,0,0.01,0,0.02,0S49.99,0,50,0L50,0z M220.74,0c-27.61,0.01-49.92,22.15-49.92,49.76c-11.3-3.06-23.19-4.69-35.46-4.69
		c-12.27,0-24.16,1.63-35.46,4.69C99.9,22.15,77.59,0.01,49.98,0C22.38,0.01,0,22.39,0,50l0.01,130.43H0
		C0,255.19,60.6,315.8,135.36,315.8s135.36-60.6,135.36-135.36V50C270.73,22.39,248.35,0.01,220.74,0L220.74,0z"/>
</g>
<g>
	<path d="M105.88,231.22v-36.77l-0.07,0.05c0.01-0.27,0.04-0.53,0.04-0.81c0-15.05-12.2-27.24-27.24-27.24
		c-15.05,0-27.24,12.2-27.24,27.24c0,11.98,7.75,22.13,18.49,25.78l-0.02,0.02l0.61,0.2c0.03,0.01,0.06,0.02,0.1,0.03L105.88,231.22
		z"/>
</g>
<circle class="st5" cx="78.62" cy="192.21" r="14.7"/>
<g>
	<path d="M139.6,270.58l12.4-7.7c6.85-4.26,3.84-14.83-4.23-14.83h-24.79c-8.07,0-11.08,10.57-4.23,14.83l12.4,7.7
		C133.72,272.19,137,272.19,139.6,270.58z"/>
</g>
<g>
	<ellipse transform="matrix(0.9761 -0.2175 0.2175 0.9761 -27.691 23.767)" cx="94.12" cy="137.67" rx="18.77" ry="11.81"/>
</g>
<g>
	<ellipse transform="matrix(0.9761 -0.2175 0.2175 0.9761 -19.5788 24.7317)" cx="102.56" cy="101.31" rx="18.77" ry="11.81"/>
</g>
<g>
	<ellipse transform="matrix(0.2175 -0.9761 0.9761 0.2175 3.0919 280.6922)" cx="176.61" cy="138.42" rx="11.81" ry="18.77"/>
</g>
<g>
	<ellipse transform="matrix(0.2175 -0.9761 0.9761 0.2175 31.9868 243.9971)" cx="168.17" cy="102.05" rx="11.81" ry="18.77"/>
</g>
<g>
	<path d="M164.85,231.22v-36.77l0.07,0.05c-0.01-0.27-0.04-0.53-0.04-0.81c0-15.05,12.2-27.24,27.24-27.24
		c15.05,0,27.24,12.2,27.24,27.24c0,11.98-7.75,22.13-18.49,25.78l0.02,0.02l-0.61,0.2c-0.03,0.01-0.06,0.02-0.1,0.03L164.85,231.22
		z"/>
</g>
<circle class="st5" cx="192.1" cy="192.21" r="14.7"/>
</svg>
