<?xml version="1.0" standalone="no"?>
<!DOCTYPE svg PUBLIC "-//W3C//DTD SVG 20010904//EN"
 "http://www.w3.org/TR/2001/REC-SVG-20010904/DTD/svg10.dtd">
<svg version="1.0" xmlns="http://www.w3.org/2000/svg"
 width="632.000000pt" height="632.000000pt" viewBox="0 0 632.000000 632.000000"
 preserveAspectRatio="xMidYMid meet">
<metadata>
Created by potrace 1.11, written by Peter Selinger 2001-2013
</metadata>
<g transform="translate(0.000000,632.000000) scale(0.100000,-0.100000)"
fill="#000000" stroke="none">
<path d="M1318 6315 c-2 -2 -17 -6 -33 -9 -17 -3 -40 -8 -52 -11 -13 -3 -32
-7 -44 -10 -49 -10 -83 -24 -186 -72 -56 -26 -156 -91 -161 -105 -2 -4 -8 -8
-14 -8 -17 0 -156 -147 -195 -207 -21 -32 -40 -60 -43 -63 -21 -19 -96 -202
-106 -259 -3 -14 -7 -27 -9 -31 -2 -4 -8 -29 -12 -56 -11 -65 -10 -2981 1
-3059 4 -33 9 -71 11 -85 9 -68 19 -121 32 -180 7 -36 16 -76 19 -90 2 -14 7
-32 10 -40 3 -8 14 -46 24 -85 11 -38 37 -118 59 -176 34 -93 53 -136 118
-274 12 -26 28 -56 84 -155 24 -42 123 -192 162 -245 39 -52 43 -57 117 -145
87 -104 255 -267 373 -360 11 -8 25 -21 32 -27 8 -7 18 -13 23 -13 6 0 12 -4
14 -8 5 -12 116 -92 128 -92 5 0 10 -4 10 -10 0 -5 7 -10 15 -10 8 0 15 -4 15
-10 0 -5 5 -10 11 -10 6 0 23 -8 37 -19 48 -33 254 -139 352 -179 169 -70 394
-139 515 -158 22 -3 43 -8 46 -9 3 -2 28 -7 55 -10 27 -4 60 -9 74 -11 97 -19
479 -26 610 -12 134 14 166 19 220 29 30 6 66 12 80 15 151 28 374 100 540
174 52 23 103 44 113 47 9 3 17 9 17 14 0 5 6 9 13 9 7 0 63 30 125 68 63 37
121 72 131 77 40 24 181 129 181 136 0 4 6 9 14 11 38 8 284 247 400 389 97
117 93 112 141 184 22 33 42 62 45 65 5 5 20 28 73 120 70 121 137 255 137
274 0 8 3 16 8 18 23 10 146 400 167 528 3 19 8 42 10 50 2 8 7 33 10 55 2 22
7 51 10 65 17 88 19 293 22 1615 3 1434 2 1472 -17 1560 -24 111 -38 148 -85
245 -38 78 -55 106 -110 179 -27 36 -154 159 -187 181 -21 14 -38 28 -38 33 0
4 -5 7 -10 7 -6 0 -29 12 -52 26 -40 26 -166 82 -198 88 -8 2 -22 6 -30 9 -77
29 -344 43 -444 23 -21 -4 -46 -9 -55 -11 -9 -2 -28 -8 -43 -14 -16 -6 -28 -9
-28 -6 0 7 -149 -58 -197 -86 -107 -61 -247 -185 -308 -273 -11 -15 -26 -34
-33 -42 -7 -8 -10 -14 -6 -14 4 0 0 -8 -8 -17 -25 -28 -85 -157 -104 -223 -16
-56 -34 -156 -40 -217 -4 -43 -11 -73 -18 -73 -6 0 -29 5 -51 11 -22 6 -49 13
-60 14 -11 2 -42 8 -70 14 -27 6 -70 13 -95 16 -25 3 -56 8 -70 11 -119 23
-549 23 -695 0 -16 -3 -48 -7 -70 -10 -22 -3 -62 -10 -89 -16 -27 -6 -61 -12
-75 -14 -14 -2 -47 -10 -73 -17 -26 -7 -49 -11 -51 -8 -3 2 -7 31 -10 64 -12
114 -19 150 -49 242 -73 223 -223 411 -429 538 -55 34 -157 80 -219 98 -115
34 -147 39 -282 42 -80 2 -148 2 -150 0z"/>
</g>
</svg>
